<svg xmlns="http://www.w3.org/2000/svg" xmlns:xlink="http://www.w3.org/1999/xlink" version="1.1" width="1000" height="1000" viewBox="0 0 1000 1000" xml:space="preserve">
<desc>Created with Fabric.js 3.5.0</desc>
<defs>
</defs>
<rect x="0" y="0" width="100%" height="100%" fill="#ffffff"/>
<g transform="matrix(6.9047 0 0 8.319 1104.2179 163.0948)" id="64668">
<g style="" vector-effect="non-scaling-stroke">
		<g transform="matrix(0.2447 0 0 0.2447 -31.8533 3.4)" id="path6">
<linearGradient id="SVGID_4" gradientUnits="objectBoundingBox" gradientTransform="matrix(1 0 0 1 50.1318 50.4926)" x1="0" y1="0" x2="1" y2="0">
<stop offset="0%" style="stop-color:rgb(239,65,54);stop-opacity: 1"/>
<stop offset="100%" style="stop-color:rgb(251,176,64);stop-opacity: 1"/>
</linearGradient>
<path style="stroke: none; stroke-width: 1; stroke-dasharray: none; stroke-linecap: butt; stroke-dashoffset: 0; stroke-linejoin: miter; stroke-miterlimit: 4; is-custom-font: none; font-file-url: none; fill: url(#SVGID_4); fill-rule: nonzero; opacity: 1;" transform=" translate(-50.1318, -50.4926)" d="m 59.5 3.082 c -4.7954 0 -8.6018 4.1599 -8.7461 9.1934 a 1.2501 1.2501 0 0 0 -0.009765 0.16016 v 0.050781 v 0.001953 c -0.000212 0.026968 -0.003907 0.053064 -0.003907 0.080078 a 1.2501 1.2501 0 0 0 0.003907 0.125 l -0.011719 6.0625 a 1.2501 1.2501 0 0 0 0.027344 0.26953 a 1.2501 1.2501 0 0 0 0 0.005859 c 0.087637 2.7858 1.0895 5.3422 2.709 7.3086 c -1.6974 2.0334 -2.7228 4.7069 -2.7539 7.625 a 1.2501 1.2501 0 0 0 -0.011719 0.17969 l -0.041016 21.643 a 1.2501 1.2501 0 0 0 0 0.007813 c -0.000034 0.002635 0.000033 0.005177 0 0.007812 v 0.16406 a 1.2501 1.2501 0 0 0 0.017579 0.21484 a 1.2501 1.2501 0 0 0 0 0.007812 c 0.057898 3.2162 1.3128 6.1365 3.3555 8.2129 c -2.1126 2.1347 -3.3999 5.1769 -3.3984 8.4844 v 0.001953 a 1.2501 1.2501 0 0 0 -0.00586 0.12109 l -0.029297 15.393 a 1.2501 1.2501 0 0 0 0 0.013672 c 0 0.001972 -0.000001 0.003887 0 0.005859 v 0.15625 a 1.2501 1.2501 0 0 0 0.017579 0.22461 c 0.18879 4.9911 3.9767 9.0996 8.7422 9.0996 c 2.987 0 5.5892 -1.6178 7.166 -4.0508 c 0.49243 0.23417 0.9998 0.44246 1.5371 0.5918 c 5.3933 1.499 10.865 -2.1252 12.193 -7.873 c 0.053852 -0.23304 0.089647 -0.46595 0.12891 -0.69922 c 4.8266 1.8209 10.372 -0.26462 13.033 -5.1699 c 2.1169 -3.9026 1.9514 -8.5589 -0.076172 -12.191 c 1.3914 -1.2473 2.581 -2.8037 3.4707 -4.6309 c 3.3427 -6.8652 1.4167 -15.253 -4.334 -19.629 c 0.70633 -1.5495 1.1191 -3.2793 1.1191 -5.1152 c 0 -5.6542 -3.7885 -10.445 -8.8418 -11.391 c 2.1119 -5.4422 0.60659 -11.91 -4.0059 -15.543 c -2.6745 -2.1063 -5.9142 -2.8138 -8.9609 -2.2676 c -1.2602 0.22595 -2.4824 0.67769 -3.623 1.3223 c -0.59124 -4.5628 -4.2009 -8.1738 -8.668 -8.1738 z m -10.766 0.017578 a 47.453 47.453 0 0 0 -8.9395 0.92773 l 0.005859 0.0039062 l 0.001953 0.0019531 a 9.2641 9.2641 0 0 1 0.11133 0.23828 l 0.025391 0.0625 a 9.2641 9.2641 0 0 1 -4.9727 12.109 a 9.2641 9.2641 0 0 1 -12.115 -4.9512 a 9.2641 9.2641 0 0 1 -0.12109 -0.32813 a 47.453 47.453 0 0 0 -12.898 12.963 a 9.2641 9.2641 0 0 1 4.4355 4.6738 l 0.027344 0.064453 a 9.2641 9.2641 0 0 1 -4.9727 12.107 a 9.2641 9.2641 0 0 1 -6.5742 0.21289 a 47.453 47.453 0 0 0 -0.013672 18.713 a 9.2641 9.2641 0 0 1 0.29492 -0.13867 a 9.2641 9.2641 0 0 1 12.133 4.9062 l 0.027344 0.064453 a 9.2641 9.2641 0 0 1 -4.9727 12.105 a 9.2641 9.2641 0 0 1 -0.36328 0.13086 a 47.453 47.453 0 0 0 13.203 13.094 a 9.2641 9.2641 0 0 1 4.8867 -4.8418 a 9.2641 9.2641 0 0 1 12.135 4.9062 l 0.027344 0.064453 a 9.2641 9.2641 0 0 1 0.089843 6.8691 a 47.453 47.453 0 0 0 8.5391 0.82617 v -27.98 a 19.424 19.424 0 0 1 -17.408 -11.857 a 19.424 19.424 0 0 1 10.332 -25.426 a 19.424 19.424 0 0 1 7.0762 -1.5098 v -28.012 z m 10.766 2.4824 c 3.4072 0 6.2617 3.053 6.2617 6.9863 a 1.2501 1.2501 0 0 0 0.068359 0.42188 c -0.67761 0.64432 -1.3023 1.3704 -1.8438 2.1973 a 1.2501 1.2501 0 1 0 2.0918 1.3691 c 3.0922 -4.7225 8.867 -5.7476 13.127 -2.3926 c 4.26 3.3551 5.2719 10.002 2.1797 14.725 c -1.7581 2.685 -4.3992 4.1445 -7.1191 4.3145 c -0.27291 0.017055 -0.54662 0.005076 -0.82031 -0.003906 c -0.062252 -2.9053 -1.1925 -5.7721 -3.3672 -7.8633 c 1.2273 -1.8688 1.9613 -4.1383 1.9844 -6.5801 a 1.2501 1.2501 0 1 0 -2.5 -0.02539 c -0.04812 5.0843 -3.7875 9.0274 -8.2441 8.9766 c -4.4567 -0.05072 -8.1262 -4.0817 -8.0781 -9.166 a 1.2501 1.2501 0 0 0 -0.003906 -0.125 a 1.2501 1.2501 0 0 0 -0.003906 -0.025391 l 0.009766 -5.293 l 0.001953 -0.61328 c 0.040801 -3.8921 2.8733 -6.9023 6.2559 -6.9023 z m 8.9727 21.689 c 3.0118 3.0375 3.31 8.2896 0.59375 11.713 c -0.21591 0.27211 -0.44244 0.52386 -0.67969 0.75586 c -0.10769 0.1053 -0.22439 0.19194 -0.33594 0.28906 c -0.086855 -0.12389 -0.16615 -0.25328 -0.25781 -0.37305 c -1.634 -2.1351 -4.022 -3.6007 -6.7988 -3.8711 a 1.2501 1.2501 0 0 0 -0.12305 -0.007812 a 1.2501 1.2501 0 0 0 -0.11914 2.4961 c 4.0811 0.39739 7.2021 4.4018 6.8242 9.0703 c -0.0591 0.72993 -0.20041 1.4268 -0.41211 2.082 a 1.2501 1.2501 0 1 0 2.3789 0.76758 c 0.2711 -0.83907 0.45073 -1.7263 0.52539 -2.6484 c 0.15063 -1.8607 -0.14637 -3.6635 -0.79492 -5.2773 c 0.63285 -0.49362 1.2236 -1.0671 1.75 -1.7305 c 1.1421 -1.4394 1.8757 -3.1061 2.2148 -4.8359 c 2.9143 0.12748 5.8217 -0.90486 8.1113 -2.957 c 0.19783 -0.17731 0.38991 -0.36236 0.57812 -0.55469 c 0.56465 -0.57699 1.0849 -1.2211 1.5488 -1.9297 c 0.034627 -0.052882 0.061903 -0.10887 0.095704 -0.16211 c 4.1677 0.35822 7.5273 4.1967 7.5273 9.0371 c 0 1.307 -0.24752 2.5439 -0.69141 3.6602 c -0.017191 0.043229 -0.040819 0.082136 -0.058594 0.125 c -1.5001 -0.76234 -3.0712 -1.2304 -4.6504 -1.3867 c -1.5298 -0.15143 -3.0592 -0.013706 -4.5293 0.36719 c -0.47561 -1.3299 -1.3718 -2.4987 -2.6387 -3.2598 a 1.2501 1.2501 0 0 0 -0.71484 -0.18555 a 1.2501 1.2501 0 0 0 -0.57226 2.3281 c 1.6485 0.9904 2.3201 3.4028 1.3711 5.3027 c -0.14842 0.29716 -0.3239 0.56032 -0.51953 0.78906 a 1.2501 1.2501 0 1 0 1.9004 1.623 c 0.32995 -0.38581 0.61759 -0.81864 0.85547 -1.2949 c 0.44872 -0.89837 0.67358 -1.8621 0.70313 -2.8184 c 2.6822 -0.76622 5.597 -0.48962 8.2539 1.0664 c 5.6123 3.2869 7.8014 11.083 4.7578 17.334 c -1.5086 3.0983 -3.9802 5.1965 -6.7539 6.1426 c -1.2483 0.42579 -2.4849 0.31192 -3.8145 -0.38281 s -2.7206 -2.0138 -3.9766 -3.9766 a 1.2501 1.2501 0 0 0 -0.019531 -0.029297 c 1.7522 -1.3864 2.9222 -3.5826 3.0254 -6.0586 a 1.2501 1.2501 0 0 0 -1.2148 -1.3184 a 1.2501 1.2501 0 0 0 -1.2832 1.2148 c -0.12845 3.0812 -2.4391 5.3233 -5.0703 5.1914 c -0.41125 -0.02064 -0.80548 -0.09809 -1.1816 -0.22461 a 1.2507 1.2507 0 1 0 -0.79688 2.3711 c 0.588 0.19777 1.2107 0.31734 1.8535 0.34961 c 0.86599 0.043403 1.6969 -0.084848 2.4766 -0.3418 a 1.2501 1.2501 0 0 0 0.10547 0.19336 c 1.4302 2.2349 3.0888 3.8869 4.9238 4.8457 c 1.835 0.95884 3.8784 1.1816 5.7793 0.5332 c 0.93235 -0.31802 1.8283 -0.75112 2.6816 -1.2734 c 1.4592 2.8421 1.5563 6.4733 -0.078125 9.4863 c -2.2679 4.1809 -6.834 5.6463 -10.688 3.707 c -0.27143 -4.508 -3.128 -8.5442 -7.4258 -9.7754 c 0.33942 -2.0744 -0.08175 -4.2857 -1.3359 -6.1172 a 1.2501 1.2501 0 0 0 -1.0625 -0.55859 a 1.2501 1.2501 0 0 0 -1.2168 1.4297 a 1.2501 1.2501 0 0 0 0.023437 0.12305 a 1.2501 1.2501 0 0 0 0.19141 0.41797 c 1.6558 2.418 1.1868 5.9276 -0.97852 7.7109 c -0.33865 0.27891 -0.69368 0.49861 -1.0586 0.66406 a 1.2501 1.2501 0 1 0 1.0312 2.2754 c 0.56705 -0.2571 1.1121 -0.59378 1.6172 -1.0098 c 0.86752 -0.71452 1.5403 -1.5927 2.0234 -2.5586 a 1.2501 1.2501 0 0 0 0.023438 0.007813 c 3.9829 1.107 6.5011 5.6483 5.4531 10.184 c -0.78599 3.4014 -3.2629 5.7129 -6.1328 6.1895 c -0.23916 0.039714 -0.48075 0.068246 -0.72461 0.082031 c -0.48771 0.02757 -0.98493 0.001255 -1.4824 -0.080078 c -0.24874 -0.040667 -0.49716 -0.094874 -0.74609 -0.16406 c -0.3951 -0.10981 -0.76794 -0.26313 -1.1309 -0.43555 c 0.33133 -1.0002 0.51953 -2.0701 0.51953 -3.1836 a 1.2501 1.2501 0 0 0 -2.498 -0.087891 a 1.2501 1.2501 0 0 0 -0.001953 0.087891 c 0 3.6875 -2.5098 6.6014 -5.6309 6.9512 c -0.20807 0.02332 -0.41791 0.035156 -0.63086 0.035156 c -3.4055 0 -6.2569 -3.05 -6.2598 -6.9805 c -0.000001 -0.001978 0 -0.003881 0 -0.005859 l 0.029297 -14.947 a 1.2502 1.2502 0 0 0 0.001953 -0.1543 c -0.21569 -4.9996 3.2118 -9.1249 7.5664 -9.4727 c 0.47724 1.2923 1.27 2.4714 2.3789 3.3848 c 0.50509 0.41599 1.0482 0.75462 1.6152 1.0117 a 1.2501 1.2501 0 1 0 1.0312 -2.2773 c -0.36489 -0.16544 -0.71994 -0.38515 -1.0586 -0.66406 c -2.1653 -1.7834 -2.6343 -5.2929 -0.97852 -7.7109 a 1.2501 1.2501 0 0 0 -1.041 -1.9707 a 1.2501 1.2501 0 0 0 -1.0215 0.55859 c -1.0728 1.5666 -1.5368 3.4117 -1.4375 5.2109 c -1.5174 0.16902 -2.9282 0.67354 -4.1758 1.4473 c -1.7559 -1.6797 -2.8867 -4.186 -2.8496 -7.0039 l 0.019532 -10.695 l 0.021484 -10.838 a 1.2501 1.2501 0 0 0 0.001953 -0.09961 c -0.02238 -2.3545 0.76481 -4.4926 2.0527 -6.1074 c 1.701 1.3079 3.7733 2.0934 6.0312 2.1191 c 2.7709 0.031636 5.2801 -1.0945 7.1836 -2.9355 z" stroke-linecap="round"/>
</g>
		<g transform="matrix(1.2235 0 0 1.2235 15.4411 2.8727)" id="path9">
<path style="stroke: none; stroke-width: 1; stroke-dasharray: none; stroke-linecap: butt; stroke-dashoffset: 0; stroke-linejoin: miter; stroke-miterlimit: 4; is-custom-font: none; font-file-url: none; fill: rgb(0,0,0); fill-rule: nonzero; opacity: 1;" transform=" translate(-24.7401, -12.86)" d="M 3.94 13.620000000000001 c -0.42666 -0.17334 -0.82332 -0.36666 -1.19 -0.58 s -0.68332 -0.47 -0.94998 -0.77 s -0.47332 -0.65334 -0.61998 -1.06 s -0.22 -0.89 -0.22 -1.45 c 0 -0.69334 0.12 -1.3033 0.36 -1.83 s 0.57666 -0.97 1.01 -1.33 s 0.95668 -0.63334 1.57 -0.82 s 1.2933 -0.28 2.04 -0.28 c 0.61334 0 1.24 0.06334 1.88 0.19 s 1.4067 0.34332 2.3 0.64998 l -1.36 2.44 c -0.86666 -0.41334 -1.78 -0.62 -2.74 -0.62 c -0.18666 0 -0.38 0.02 -0.58 0.06 s -0.38 0.11 -0.54 0.21 s -0.29334 0.23666 -0.4 0.41 s -0.16 0.4 -0.16 0.68 c 0 0.22666 0.04334 0.41332 0.13 0.55998 s 0.19666 0.27332 0.33 0.37998 s 0.28668 0.19666 0.46002 0.27 s 0.34668 0.14334 0.52002 0.21 l 1.18 0.46 c 0.50666 0.2 0.97 0.41 1.39 0.63 s 0.77666 0.48666 1.07 0.8 s 0.52 0.69668 0.68 1.15 s 0.24 1.02 0.24 1.7 s -0.12334 1.3 -0.37 1.86 s -0.60666 1.0367 -1.08 1.43 s -1.0567 0.7 -1.75 0.92 s -1.4867 0.33 -2.38 0.33 c -0.41334 0 -0.79334 -0.01334 -1.14 -0.04 s -0.68332 -0.07332 -1.01 -0.13998 s -0.65332 -0.14666 -0.97998 -0.24 s -0.67666 -0.21334 -1.05 -0.36 l 0.68 -2.8 c 0.54666 0.14666 1.0833 0.27666 1.61 0.39 s 1.0633 0.17 1.61 0.17 c 0.73334 0 1.2933 -0.09666 1.68 -0.29 s 0.61332 -0.56334 0.67998 -1.11 c 0.02666 -0.28 -0.0066796 -0.51334 -0.10002 -0.7 s -0.22668 -0.34332 -0.40002 -0.46998 s -0.36668 -0.23 -0.58002 -0.31 l -0.64 -0.24 z M 12.02 9.56 l 3.04 -0.000039062 l 0 5.44 c 0 0.46666 0.04 0.85666 0.12 1.17 s 0.2 0.56 0.36 0.74 s 0.35666 0.30666 0.59 0.38 s 0.51 0.11 0.83 0.11 c 0.38666 0 0.73332 -0.02 1.04 -0.06 l -0.04 -0.36 l 0 -7.42 l 3.04 0 l 0 9.88 c -0.49334 0.17334 -1.0833 0.32668 -1.77 0.46002 s -1.39 0.2 -2.11 0.2 c -0.68 0 -1.33 -0.05334 -1.95 -0.16 s -1.1633 -0.33332 -1.63 -0.67998 s -0.83666 -0.85 -1.11 -1.51 s -0.41 -1.55 -0.41 -2.67 l 0 -5.52 z M 23.52 12.04 l -1.66 0 l 1.32 -2.48 l 2.9 0 l 0.24 1.12 c 0.30666 -0.34666 0.68332 -0.63 1.13 -0.85 s 0.96332 -0.33 1.55 -0.33 c 1.3733 0 2.3534 0.5 2.94 1.5 c 0.33334 -0.46666 0.72668 -0.83332 1.18 -1.1 s 1.02 -0.4 1.7 -0.4 c 1.2 0 2.0766 0.31666 2.63 0.95 s 0.83 1.6433 0.83 3.03 l 0 6.52 l -3.04 0 l 0 -5.98 c 0 -0.64 -0.10334 -1.0933 -0.31 -1.36 s -0.56332 -0.4 -1.07 -0.4 c -0.21334 0 -0.41 0.02334 -0.59 0.07 s -0.33334 0.13332 -0.46 0.25998 s -0.22666 0.3 -0.3 0.52 s -0.11 0.51 -0.11 0.87 l 0 6.02 l -3.04 0 l 0 -6.02 c 0 -0.66666 -0.11666 -1.12 -0.35 -1.36 s -0.55668 -0.36 -0.97002 -0.36 c -0.2 0 -0.38666 0.02 -0.56 0.06 s -0.33 0.12 -0.47 0.24 s -0.25 0.29334 -0.33 0.52 s -0.12 0.52666 -0.12 0.9 l 0 6.02 l -3.04 0 l 0 -7.96 z M 44.32 17.38 l 4.58 0 l 0 2.62 l -8.46 0 l 0 -2.26 l 0.33 -0.37 l 0.84 -0.94 l 1.13 -1.26 l 1.2 -1.33 l 1.04 -1.16 l 0.68 -0.74 l -0.32 0.1 l -2.32 0 l 0 1.1 l -2.5 -0.76 l 0 -2.82 l 8.26 0 l 0 2.36 z" stroke-linecap="round"/>
</g>
</g>
</g>
<g transform="matrix(1 0 0 1 499.5 156.5)" style="" id="66523">
		
<path xml:space="preserve" font-family="Lato" font-size="100" font-style="normal" font-weight="bold" style="stroke: none; stroke-width: 0; stroke-dasharray: none; stroke-linecap: butt; stroke-dashoffset: 0; stroke-linejoin: miter; stroke-miterlimit: 4; is-custom-font: none; font-file-url: none; fill: rgb(0,0,0); fill-rule: nonzero; opacity: 1; white-space: pre;" d="M-93.54-4.74L-93.54-4.74Q-93.54 3.21-96.19 9.99Q-98.84 16.76-103.64 21.71Q-108.44 26.66-115.19 29.44Q-121.94 32.21-130.14 32.21L-130.14 32.21Q-138.34 32.21-145.12 29.44Q-151.89 26.66-156.72 21.71Q-161.54 16.76-164.19 9.99Q-166.84 3.21-166.84-4.74L-166.84-4.74Q-166.84-12.69-164.19-19.46Q-161.54-26.24-156.72-31.19Q-151.89-36.14-145.12-38.91Q-138.34-41.69-130.14-41.69L-130.14-41.69Q-121.94-41.69-115.19-38.89Q-108.44-36.09-103.64-31.16Q-98.84-26.24-96.19-19.46Q-93.54-12.69-93.54-4.74ZM-107.34-4.74L-107.34-4.74Q-107.34-10.69-108.92-15.41Q-110.49-20.14-113.44-23.44Q-116.39-26.74-120.62-28.49Q-124.84-30.24-130.14-30.24L-130.14-30.24Q-135.44-30.24-139.69-28.49Q-143.94-26.74-146.92-23.44Q-149.89-20.14-151.49-15.41Q-153.09-10.69-153.09-4.74L-153.09-4.74Q-153.09 1.21-151.49 5.94Q-149.89 10.66-146.92 13.94Q-143.94 17.21-139.69 18.96Q-135.44 20.71-130.14 20.71L-130.14 20.71Q-124.84 20.71-120.62 18.96Q-116.39 17.21-113.44 13.94Q-110.49 10.66-108.92 5.94Q-107.34 1.21-107.34-4.74ZM-71.29 48.16L-83.64 48.16L-83.64-19.89L-76.09-19.89Q-74.89-19.89-74.04-19.34Q-73.19-18.79-72.94-17.64L-72.94-17.64L-71.94-12.89Q-68.84-16.44-64.82-18.64Q-60.79-20.84-55.39-20.84L-55.39-20.84Q-51.19-20.84-47.72-19.09Q-44.24-17.34-41.72-14.01Q-39.19-10.69-37.82-5.81Q-36.44-0.94-36.44 5.36L-36.44 5.36Q-36.44 11.11-37.99 16.01Q-39.54 20.91-42.42 24.51Q-45.29 28.11-49.37 30.14Q-53.44 32.16-58.49 32.16L-58.49 32.16Q-62.84 32.16-65.87 30.84Q-68.89 29.51-71.29 27.16L-71.29 27.16L-71.29 48.16ZM-59.64-11.09L-59.64-11.09Q-63.49-11.09-66.22-9.46Q-68.94-7.84-71.29-4.89L-71.29-4.89L-71.29 18.11Q-69.19 20.71-66.72 21.74Q-64.24 22.76-61.39 22.76L-61.39 22.76Q-58.59 22.76-56.32 21.71Q-54.04 20.66-52.47 18.51Q-50.89 16.36-50.04 13.09Q-49.19 9.81-49.19 5.36L-49.19 5.36Q-49.19 0.86-49.92-2.26Q-50.64-5.39-51.99-7.34Q-53.34-9.29-55.27-10.19Q-57.19-11.09-59.64-11.09ZM-5.89-20.69L-5.89-20.69Q-1.04-20.69 3.03-19.14Q7.11-17.59 10.06-14.61Q13.01-11.64 14.66-7.31Q16.31-2.99 16.31 2.56L16.31 2.56Q16.31 3.96 16.18 4.89Q16.06 5.81 15.73 6.34Q15.41 6.86 14.86 7.09Q14.31 7.31 13.46 7.31L13.46 7.31L-18.24 7.31Q-17.69 15.21-13.99 18.91Q-10.29 22.61-4.19 22.61L-4.19 22.61Q-1.19 22.61 0.98 21.91Q3.16 21.21 4.78 20.36Q6.41 19.51 7.63 18.81Q8.86 18.11 10.01 18.11L10.01 18.11Q10.76 18.11 11.31 18.41Q11.86 18.71 12.26 19.26L12.26 19.26L15.86 23.76Q13.81 26.16 11.26 27.79Q8.71 29.41 5.93 30.39Q3.16 31.36 0.28 31.76Q-2.59 32.16-5.29 32.16L-5.29 32.16Q-10.64 32.16-15.24 30.39Q-19.84 28.61-23.24 25.14Q-26.64 21.66-28.59 16.54Q-30.54 11.41-30.54 4.66L-30.54 4.66Q-30.54-0.59-28.84-5.21Q-27.14-9.84-23.97-13.26Q-20.79-16.69-16.22-18.69Q-11.64-20.69-5.89-20.69ZM-5.64-11.84L-5.64-11.84Q-11.04-11.84-14.09-8.79Q-17.14-5.74-17.99-0.14L-17.99-0.14L5.21-0.14Q5.21-2.54 4.56-4.66Q3.91-6.79 2.56-8.39Q1.21-9.99-0.84-10.91Q-2.89-11.84-5.64-11.84ZM38.71 31.41L26.36 31.41L26.36-19.89L33.91-19.89Q36.31-19.89 37.06-17.64L37.06-17.64L37.91-13.59Q39.46-15.19 41.18-16.49Q42.91-17.79 44.83-18.74Q46.76-19.69 48.96-20.19Q51.16-20.69 53.76-20.69L53.76-20.69Q57.96-20.69 61.21-19.26Q64.46-17.84 66.63-15.26Q68.81-12.69 69.93-9.11Q71.06-5.54 71.06-1.24L71.06-1.24L71.06 31.41L58.71 31.41L58.71-1.24Q58.71-5.94 56.53-8.51Q54.36-11.09 50.01-11.09L50.01-11.09Q46.81-11.09 44.01-9.64Q41.21-8.19 38.71-5.69L38.71-5.69L38.71 31.41ZM119.06-40.89L147.46 31.41L137.06 31.41Q135.31 31.41 134.18 30.54Q133.06 29.66 132.56 28.36L132.56 28.36L127.16 13.61L97.21 13.61L91.81 28.36Q91.41 29.51 90.23 30.46Q89.06 31.41 87.36 31.41L87.36 31.41L76.91 31.41L105.31-40.89L119.06-40.89ZM109.46-19.84L100.66 4.11L123.71 4.11L114.91-19.94Q114.31-21.54 113.58-23.71Q112.86-25.89 112.16-28.44L112.16-28.44Q111.46-25.89 110.78-23.69Q110.11-21.49 109.46-19.84L109.46-19.84ZM155.01-19.89L167.36-19.89L167.36 31.41L155.01 31.41L155.01-19.89ZM169.21-34.84L169.21-34.84Q169.21-33.24 168.56-31.84Q167.91-30.44 166.83-29.39Q165.76-28.34 164.31-27.71Q162.86-27.09 161.21-27.09L161.21-27.09Q159.61-27.09 158.18-27.71Q156.76-28.34 155.71-29.39Q154.66-30.44 154.03-31.84Q153.41-33.24 153.41-34.84L153.41-34.84Q153.41-36.49 154.03-37.94Q154.66-39.39 155.71-40.44Q156.76-41.49 158.18-42.11Q159.61-42.74 161.21-42.74L161.21-42.74Q162.86-42.74 164.31-42.11Q165.76-41.49 166.83-40.44Q167.91-39.39 168.56-37.94Q169.21-36.49 169.21-34.84Z"/></g>
<g transform="matrix(1 0 0 1 500 290.615)" style="" id="754775">
		
<path xml:space="preserve" font-family="Lato" font-size="71" font-style="normal" font-weight="bold" style="stroke: none; stroke-width: 1; stroke-dasharray: none; stroke-linecap: butt; stroke-dashoffset: 0; stroke-linejoin: miter; stroke-miterlimit: 4; is-custom-font: none; font-file-url: none; fill: rgb(0,0,0); fill-rule: nonzero; opacity: 1; white-space: pre;" d="M-158.03-24.20L-160.37-19.69Q-160.76-18.91-161.28-18.59Q-161.79-18.27-162.50-18.27L-162.50-18.27Q-163.21-18.27-164.10-18.82Q-164.99-19.37-166.19-20.05Q-167.40-20.72-169.01-21.27Q-170.63-21.82-172.83-21.82L-172.83-21.82Q-174.82-21.82-176.29-21.34Q-177.77-20.86-178.78-20.01Q-179.79-19.16-180.29-17.97Q-180.78-16.78-180.78-15.36L-180.78-15.36Q-180.78-13.55-179.77-12.34Q-178.76-11.14-177.09-10.29Q-175.42-9.43-173.29-8.76Q-171.16-8.08-168.94-7.32Q-166.72-6.56-164.59-5.55Q-162.46-4.53-160.80-2.99Q-159.13-1.45-158.12 0.79Q-157.10 3.03-157.10 6.22L-157.10 6.22Q-157.10 9.70-158.29 12.74Q-159.48 15.77-161.77 18.03Q-164.06 20.28-167.36 21.58Q-170.67 22.87-174.93 22.87L-174.93 22.87Q-177.37 22.87-179.75 22.39Q-182.13 21.91-184.32 21.03Q-186.50 20.14-188.40 18.90Q-190.30 17.65-191.79 16.13L-191.79 16.13L-189.02 11.55Q-188.63 11.05-188.08 10.71Q-187.53 10.38-186.85 10.38L-186.85 10.38Q-185.97 10.38-184.94 11.10Q-183.91 11.83-182.50 12.72Q-181.10 13.61-179.20 14.33Q-177.30 15.06-174.64 15.06L-174.64 15.06Q-170.56 15.06-168.32 13.13Q-166.09 11.19-166.09 7.57L-166.09 7.57Q-166.09 5.55-167.10 4.27Q-168.11 2.99-169.78 2.12Q-171.45 1.25-173.58 0.65Q-175.71 0.05-177.91-0.66Q-180.11-1.37-182.24-2.37Q-184.37-3.36-186.04-4.96Q-187.71-6.56-188.72-8.95Q-189.73-11.35-189.73-14.86L-189.73-14.86Q-189.73-17.67-188.61-20.33Q-187.49-22.99-185.34-25.05Q-183.20-27.11-180.07-28.35Q-176.95-29.60-172.94-29.60L-172.94-29.60Q-168.39-29.60-164.56-28.18Q-160.73-26.76-158.03-24.20L-158.03-24.20ZM-151.03-14.12L-142.27-14.12L-142.27 9.03Q-142.27 12.36-140.72 14.19Q-139.18 16.02-136.09 16.02L-136.09 16.02Q-133.82 16.02-131.83 15.01Q-129.84 14.00-128.07 12.22L-128.07 12.22L-128.07-14.12L-119.30-14.12L-119.30 22.30L-124.66 22.30Q-126.36 22.30-126.89 20.71L-126.89 20.71L-127.50 17.80Q-128.63 18.93-129.84 19.87Q-131.05 20.81-132.41 21.47Q-133.78 22.13-135.36 22.50Q-136.94 22.87-138.75 22.87L-138.75 22.87Q-141.73 22.87-144.02 21.86Q-146.31 20.85-147.87 19.00Q-149.44 17.16-150.24 14.62Q-151.03 12.08-151.03 9.03L-151.03 9.03L-151.03-14.12ZM-101.16 22.30L-109.92 22.30L-109.92-14.12L-104.56-14.12Q-102.86-14.12-102.33-12.52L-102.33-12.52L-101.76-9.82Q-100.80-10.89-99.75-11.78Q-98.71-12.66-97.52-13.30Q-96.33-13.94-94.96-14.31Q-93.59-14.69-91.96-14.69L-91.96-14.69Q-88.52-14.69-86.30-12.82Q-84.08-10.96-82.98-7.87L-82.98-7.87Q-82.13-9.68-80.85-10.98Q-79.57-12.27-78.05-13.09Q-76.52-13.91-74.80-14.30Q-73.08-14.69-71.34-14.69L-71.34-14.69Q-68.32-14.69-65.98-13.76Q-63.63-12.84-62.04-11.07Q-60.44-9.29-59.60-6.74Q-58.77-4.18-58.77-0.88L-58.77-0.88L-58.77 22.30L-67.54 22.30L-67.54-0.88Q-67.54-4.36-69.06-6.11Q-70.59-7.87-73.54-7.87L-73.54-7.87Q-74.89-7.87-76.04-7.41Q-77.19-6.95-78.06-6.08Q-78.93-5.21-79.43-3.90Q-79.93-2.58-79.93-0.88L-79.93-0.88L-79.93 22.30L-88.73 22.30L-88.73-0.88Q-88.73-4.53-90.20-6.20Q-91.68-7.87-94.55-7.87L-94.55-7.87Q-96.43-7.87-98.09-6.93Q-99.74-5.99-101.16-4.36L-101.16-4.36L-101.16 22.30ZM-41.37 22.30L-50.14 22.30L-50.14-14.12L-44.78-14.12Q-43.08-14.12-42.55-12.52L-42.55-12.52L-41.98-9.82Q-41.02-10.89-39.97-11.78Q-38.92-12.66-37.74-13.30Q-36.55-13.94-35.18-14.31Q-33.81-14.69-32.18-14.69L-32.18-14.69Q-28.74-14.69-26.52-12.82Q-24.30-10.96-23.20-7.87L-23.20-7.87Q-22.35-9.68-21.07-10.98Q-19.79-12.27-18.26-13.09Q-16.74-13.91-15.02-14.30Q-13.29-14.69-11.55-14.69L-11.55-14.69Q-8.54-14.69-6.19-13.76Q-3.85-12.84-2.25-11.07Q-0.66-9.29 0.18-6.74Q1.01-4.18 1.01-0.88L1.01-0.88L1.01 22.30L-7.76 22.30L-7.76-0.88Q-7.76-4.36-9.28-6.11Q-10.81-7.87-13.76-7.87L-13.76-7.87Q-15.10-7.87-16.26-7.41Q-17.41-6.95-18.28-6.08Q-19.15-5.21-19.65-3.90Q-20.15-2.58-20.15-0.88L-20.15-0.88L-20.15 22.30L-28.95 22.30L-28.95-0.88Q-28.95-4.53-30.42-6.20Q-31.90-7.87-34.77-7.87L-34.77-7.87Q-36.65-7.87-38.30-6.93Q-39.95-5.99-41.37-4.36L-41.37-4.36L-41.37 22.30ZM24.69-14.69L24.69-14.69Q28.13-14.69 31.03-13.59Q33.92-12.49 36.02-10.37Q38.11-8.26 39.28-5.19Q40.45-2.12 40.45 1.82L40.45 1.82Q40.45 2.81 40.36 3.47Q40.28 4.13 40.04 4.50Q39.81 4.87 39.42 5.03Q39.03 5.19 38.43 5.19L38.43 5.19L15.92 5.19Q16.31 10.80 18.94 13.43Q21.57 16.06 25.90 16.06L25.90 16.06Q28.03 16.06 29.57 15.56Q31.12 15.06 32.27 14.46Q33.42 13.85 34.29 13.36Q35.16 12.86 35.98 12.86L35.98 12.86Q36.51 12.86 36.90 13.07Q37.29 13.29 37.58 13.68L37.58 13.68L40.13 16.87Q38.68 18.58 36.87 19.73Q35.06 20.88 33.09 21.58Q31.12 22.27 29.08 22.55Q27.03 22.84 25.12 22.84L25.12 22.84Q21.32 22.84 18.05 21.58Q14.79 20.32 12.37 17.85Q9.96 15.38 8.57 11.74Q7.19 8.10 7.19 3.31L7.19 3.31Q7.19-0.42 8.40-3.70Q9.60-6.98 11.86-9.42Q14.11-11.85 17.36-13.27Q20.61-14.69 24.69-14.69ZM24.87-8.40L24.87-8.40Q21.03-8.40 18.87-6.24Q16.70-4.07 16.10-0.10L16.10-0.10L32.57-0.10Q32.57-1.80 32.11-3.31Q31.65-4.82 30.69-5.95Q29.73-7.09 28.28-7.75Q26.82-8.40 24.87-8.40ZM56.36 22.30L47.59 22.30L47.59-14.12L52.74-14.12Q54.09-14.12 54.62-13.62Q55.15-13.13 55.33-11.92L55.33-11.92L55.86-7.52Q57.81-10.89 60.44-12.84Q63.07-14.79 66.33-14.79L66.33-14.79Q69.03-14.79 70.81-13.55L70.81-13.55L69.67-6.98Q69.56-6.34 69.21-6.08Q68.85-5.81 68.25-5.81L68.25-5.81Q67.72-5.81 66.79-6.06Q65.87-6.31 64.34-6.31L64.34-6.31Q61.61-6.31 59.66-4.80Q57.71-3.29 56.36-0.38L56.36-0.38L56.36 22.30ZM77.16-14.12L85.93-14.12L85.93 22.30L77.16 22.30L77.16-14.12ZM87.24-24.73L87.24-24.73Q87.24-23.60 86.78-22.60Q86.32-21.61 85.56-20.86Q84.79-20.12 83.76-19.67Q82.73-19.23 81.56-19.23L81.56-19.23Q80.43-19.23 79.41-19.67Q78.40-20.12 77.66-20.86Q76.91-21.61 76.47-22.60Q76.02-23.60 76.02-24.73L76.02-24.73Q76.02-25.91 76.47-26.93Q76.91-27.96 77.66-28.71Q78.40-29.46 79.41-29.90Q80.43-30.34 81.56-30.34L81.56-30.34Q82.73-30.34 83.76-29.90Q84.79-29.46 85.56-28.71Q86.32-27.96 86.78-26.93Q87.24-25.91 87.24-24.73ZM122.17-14.12L122.17-10.50Q122.17-9.58 121.84-8.71Q121.50-7.84 121.04-7.23L121.04-7.23L103.71 15.56L121.68 15.56L121.68 22.30L93.53 22.30L93.53 18.65Q93.53 18.04 93.81 17.21Q94.09 16.38 94.70 15.63L94.70 15.63L112.16-7.41L94.56-7.41L94.56-14.12L122.17-14.12ZM144.22-14.69L144.22-14.69Q147.66-14.69 150.56-13.59Q153.45-12.49 155.54-10.37Q157.64-8.26 158.81-5.19Q159.98-2.12 159.98 1.82L159.98 1.82Q159.98 2.81 159.89 3.47Q159.80 4.13 159.57 4.50Q159.34 4.87 158.95 5.03Q158.56 5.19 157.96 5.19L157.96 5.19L135.45 5.19Q135.84 10.80 138.47 13.43Q141.10 16.06 145.43 16.06L145.43 16.06Q147.56 16.06 149.10 15.56Q150.65 15.06 151.80 14.46Q152.95 13.85 153.82 13.36Q154.69 12.86 155.51 12.86L155.51 12.86Q156.04 12.86 156.43 13.07Q156.82 13.29 157.11 13.68L157.11 13.68L159.66 16.87Q158.21 18.58 156.40 19.73Q154.59 20.88 152.62 21.58Q150.65 22.27 148.60 22.55Q146.56 22.84 144.65 22.84L144.65 22.84Q140.85 22.84 137.58 21.58Q134.32 20.32 131.90 17.85Q129.49 15.38 128.10 11.74Q126.72 8.10 126.72 3.31L126.72 3.31Q126.72-0.42 127.93-3.70Q129.13-6.98 131.39-9.42Q133.64-11.85 136.89-13.27Q140.14-14.69 144.22-14.69ZM144.40-8.40L144.40-8.40Q140.56-8.40 138.40-6.24Q136.23-4.07 135.63-0.10L135.63-0.10L152.10-0.10Q152.10-1.80 151.64-3.31Q151.18-4.82 150.22-5.95Q149.26-7.09 147.81-7.75Q146.35-8.40 144.40-8.40ZM175.89 22.30L167.12 22.30L167.12-14.12L172.26-14.12Q173.61-14.12 174.15-13.62Q174.68-13.13 174.86-11.92L174.86-11.92L175.39-7.52Q177.34-10.89 179.97-12.84Q182.60-14.79 185.86-14.79L185.86-14.79Q188.56-14.79 190.33-13.55L190.33-13.55L189.20-6.98Q189.09-6.34 188.74-6.08Q188.38-5.81 187.78-5.81L187.78-5.81Q187.25-5.81 186.32-6.06Q185.40-6.31 183.87-6.31L183.87-6.31Q181.14-6.31 179.19-4.80Q177.23-3.29 175.89-0.38L175.89-0.38L175.89 22.30Z"/></g>
</svg>